<?xml version="1.0" standalone="no"?>
<!DOCTYPE svg PUBLIC "-//W3C//DTD SVG 20010904//EN"
 "http://www.w3.org/TR/2001/REC-SVG-20010904/DTD/svg10.dtd">
<svg version="1.0" xmlns="http://www.w3.org/2000/svg"
 width="512.000000pt" height="512.000000pt" viewBox="0 0 512.000000 512.000000"
 preserveAspectRatio="xMidYMid meet">

<g transform="translate(0.000000,512.000000) scale(0.100000,-0.100000)"
fill="#000000" stroke="none">
<path d="M1465 5063 c-147 -31 -313 -132 -406 -247 -110 -135 -158 -269 -166
-458 l-6 -128 -121 0 c-144 0 -252 -23 -353 -74 -191 -96 -320 -249 -385 -456
l-23 -75 0 -1055 0 -1055 23 -75 c77 -246 248 -419 497 -501 68 -23 80 -23
541 -27 442 -3 472 -2 492 15 32 26 38 73 14 103 l-20 25 -459 5 -458 6 -78
26 c-195 66 -340 222 -388 418 -20 81 -20 2039 0 2120 39 162 158 313 301 384
143 70 58 67 1683 64 l1462 -3 67 -26 c188 -73 314 -203 371 -384 l22 -70 0
-1025 c0 -967 -1 -1028 -18 -1085 -30 -98 -77 -175 -152 -250 -110 -110 -223
-160 -385 -171 -97 -7 -194 -45 -230 -92 -186 -237 -512 -525 -822 -726 -121
-79 -131 -70 -69 65 95 206 186 503 179 581 -7 63 -45 120 -100 147 -42 20
-59 21 -344 21 -288 0 -301 -1 -322 -20 -32 -30 -30 -82 4 -109 26 -20 39 -21
309 -21 231 0 285 -3 294 -14 9 -11 7 -32 -8 -93 -31 -119 -96 -302 -154 -432
-62 -138 -66 -186 -24 -250 47 -71 135 -99 212 -67 54 23 288 185 430 298 155
124 331 292 451 429 48 55 99 106 113 113 14 7 65 16 112 20 309 22 574 242
655 541 8 33 18 115 21 181 l6 122 146 5 c114 3 161 9 216 27 245 78 414 247
496 495 23 68 23 81 27 527 l3 458 -25 25 c-17 17 -36 25 -59 25 -67 0 -65 13
-70 -475 -4 -378 -7 -448 -21 -500 -46 -158 -159 -296 -303 -369 l-52 -26 -4
823 c-3 612 -7 835 -16 872 -7 28 -33 92 -58 144 -36 75 -59 108 -121 171
-129 129 -259 185 -462 199 -83 6 -135 16 -186 34 -40 14 -106 30 -149 36 -51
7 -490 11 -1311 11 l-1234 0 0 98 c0 55 7 123 15 156 50 193 207 350 410 413
57 17 131 18 1530 18 1399 0 1473 -1 1530 -18 156 -48 290 -154 358 -285 68
-130 69 -139 76 -630 6 -424 7 -444 25 -458 31 -22 74 -17 102 11 l25 25 -3
458 c-4 446 -4 459 -27 527 -70 213 -201 364 -396 456 -155 73 -66 69 -1697
68 -1258 -1 -1473 -3 -1533 -16z"/>
<path d="M880 2793 c-28 -10 -66 -37 -102 -73 -45 -45 -60 -69 -74 -115 -56
-195 81 -379 281 -379 199 0 337 186 280 379 -22 75 -105 163 -179 188 -61 21
-146 21 -206 0z m188 -162 c73 -51 75 -160 5 -221 -34 -30 -40 -32 -96 -28
-53 4 -64 8 -92 40 -45 49 -52 97 -23 156 41 81 134 105 206 53z"/>
<path d="M1583 2794 c-60 -22 -128 -86 -160 -151 -71 -146 -6 -321 145 -394
67 -32 168 -32 240 0 150 67 215 251 141 399 -32 65 -67 100 -133 134 -54 28
-174 34 -233 12z m166 -152 c132 -67 89 -262 -58 -262 -85 0 -141 56 -141 141
0 52 23 89 74 120 39 24 81 24 125 1z"/>
<path d="M2299 2796 c-123 -44 -198 -147 -199 -272 0 -82 23 -144 76 -203 59
-66 127 -96 219 -95 310 2 401 423 120 556 -67 31 -152 37 -216 14z m144 -150
c52 -22 79 -59 85 -114 8 -89 -49 -152 -137 -152 -148 0 -193 195 -60 262 41
22 69 23 112 4z"/>
<path d="M2990 2793 c-28 -10 -66 -37 -102 -73 -45 -45 -60 -69 -74 -115 -41
-144 21 -287 154 -352 155 -76 341 0 402 164 42 112 18 217 -68 303 -87 86
-199 112 -312 73z m188 -162 c73 -51 75 -160 5 -221 -34 -30 -40 -32 -96 -28
-53 4 -64 8 -92 40 -45 49 -52 97 -23 156 41 81 134 105 206 53z"/>
</g>
</svg>
