<?xml version="1.0" standalone="no"?>
<!DOCTYPE svg PUBLIC "-//W3C//DTD SVG 20010904//EN"
 "http://www.w3.org/TR/2001/REC-SVG-20010904/DTD/svg10.dtd">
<svg version="1.0" xmlns="http://www.w3.org/2000/svg"
 width="920.000000pt" height="729.000000pt" viewBox="0 0 920.000000 729.000000"
 preserveAspectRatio="xMidYMid meet">

<g transform="translate(0.000000,729.000000) scale(0.100000,-0.100000)"
fill="#000000" stroke="none">
<path d="M5350 7217 c0 -60 -2 -65 -71 -167 -63 -95 -78 -110 -147 -154 l-77
-49 -97 17 c-61 11 -114 15 -143 10 -36 -5 -50 -3 -64 10 -16 15 -27 15 -90 5
-54 -9 -81 -9 -110 0 -35 10 -46 8 -110 -19 l-72 -31 -32 19 c-28 17 -48 19
-158 17 -69 -1 -135 -7 -146 -14 -12 -6 -34 -11 -49 -11 -18 0 -56 -22 -115
-67 l-88 -67 48 -32 c27 -19 54 -46 61 -64 13 -31 73 -80 97 -80 8 0 12 13 10
36 -1 28 3 39 21 51 21 15 23 14 33 -16 13 -38 19 -38 49 -6 24 25 45 31 67
17 10 -6 10 -17 2 -46 -9 -34 -8 -41 10 -59 16 -16 23 -18 35 -8 9 7 37 11 73
9 l58 -3 10 -80 10 -80 43 0 c37 0 46 -4 58 -27 8 -15 29 -31 49 -38 l36 -12
-3 -56 c-3 -57 -3 -57 -50 -82 -47 -25 -48 -26 -48 -75 0 -33 -7 -60 -20 -80
-27 -42 -25 -48 11 -30 17 9 33 15 35 13 2 -2 -5 -28 -16 -57 -23 -59 -19 -75
16 -67 18 5 46 -6 103 -39 43 -25 91 -45 107 -45 51 0 72 -11 99 -52 15 -22
25 -41 23 -42 -2 -2 -24 -11 -50 -21 -43 -16 -48 -21 -48 -48 0 -18 -38 -104
-101 -224 -75 -144 -96 -194 -83 -189 11 3 62 12 114 21 52 9 103 18 114 22
16 4 18 1 14 -25 -4 -28 -2 -31 30 -37 45 -8 57 5 57 61 0 44 1 46 47 66 l47
20 30 -22 c20 -14 31 -30 31 -46 0 -31 25 -31 64 1 22 17 35 21 51 15 16 -6
30 -3 51 10 27 18 30 18 54 3 14 -9 41 -16 60 -15 22 1 44 -6 59 -19 l24 -20
-36 -37 c-28 -28 -34 -41 -26 -49 9 -9 17 -8 35 3 13 9 39 14 65 12 39 -3 44
-6 51 -34 8 -31 9 -32 49 -23 34 8 45 6 70 -12 17 -12 52 -23 86 -26 35 -4 63
-13 73 -23 8 -10 34 -25 58 -34 l42 -16 11 27 c8 22 6 32 -11 55 -23 31 -26
29 55 53 47 14 51 13 65 -4 8 -10 25 -24 38 -30 12 -7 22 -21 22 -34 l0 -21
16 22 c14 20 17 21 42 8 15 -8 53 -17 85 -21 47 -6 61 -4 76 9 17 15 23 14 87
-10 38 -14 70 -27 71 -28 1 -1 -9 -16 -23 -33 -21 -28 -28 -30 -53 -23 -41 11
-59 -12 -54 -66 4 -37 9 -44 45 -60 32 -14 38 -22 34 -39 -5 -18 2 -25 35 -41
l41 -18 19 25 c19 24 19 24 35 4 8 -11 13 -30 11 -43 -2 -13 2 -26 10 -30 11
-7 11 -14 -3 -47 -14 -33 -14 -48 -5 -91 7 -28 9 -57 6 -65 -4 -10 6 -19 30
-28 32 -11 39 -11 54 3 16 14 20 15 30 2 10 -12 18 -8 52 28 38 43 39 45 39
120 0 66 -4 85 -31 138 -31 61 -31 62 -27 194 3 126 2 133 -17 142 -25 12 -75
137 -75 191 0 41 -41 127 -71 148 -10 7 -20 31 -24 53 -6 34 -14 44 -51 66
-36 21 -44 31 -44 56 0 19 -12 45 -34 71 -52 65 -125 217 -119 250 5 23 -10
44 -109 154 -64 71 -124 146 -136 168 -11 22 -45 68 -76 102 -31 33 -56 69
-56 78 0 9 -20 40 -44 68 -33 37 -67 99 -126 231 -44 100 -80 189 -80 200 0
10 -13 34 -30 53 -16 18 -30 44 -30 57 0 13 -6 29 -14 35 -7 6 -28 53 -46 104
-18 50 -35 95 -39 98 -3 4 -21 9 -38 12 l-33 7 0 -63z"/>
<path d="M3764 6644 c-5 -36 -10 -44 -24 -39 -11 3 -20 -2 -27 -17 -6 -13 -45
-68 -86 -124 -62 -84 -80 -102 -108 -108 -49 -9 -79 -42 -79 -85 0 -55 -32
-180 -48 -186 -7 -3 -45 -8 -84 -12 -64 -5 -69 -8 -64 -27 2 -12 8 -51 11 -87
6 -57 10 -68 31 -78 16 -7 24 -19 24 -35 0 -25 16 -36 56 -36 15 0 24 -6 24
-15 0 -10 10 -15 34 -15 18 0 49 -7 68 -15 33 -13 36 -18 40 -65 3 -33 12 -59
25 -72 20 -19 20 -22 4 -59 -13 -32 -22 -40 -54 -46 -31 -6 -42 -15 -52 -40
l-14 -33 44 0 c36 0 47 -4 56 -22 6 -13 21 -33 32 -45 l20 -23 -27 0 c-15 0
-38 -7 -51 -16 -18 -12 -25 -13 -25 -4 0 15 -69 4 -88 -14 -10 -10 -11 -18 -1
-40 10 -20 10 -29 1 -38 -15 -15 -16 -68 -2 -68 6 0 10 -9 10 -20 0 -30 25
-24 68 15 28 25 44 32 60 28 25 -6 30 -33 7 -33 -8 0 -17 -10 -19 -22 -3 -13
-7 -34 -10 -48 -2 -14 -8 -35 -11 -47 -6 -18 -2 -25 20 -33 20 -7 25 -15 20
-29 -4 -15 10 -30 64 -70 60 -45 80 -54 150 -67 80 -15 81 -15 121 9 34 20 48
23 83 17 27 -5 49 -17 62 -34 19 -23 27 -26 67 -22 26 2 72 12 103 22 53 17
56 20 51 45 -4 22 0 29 30 45 19 11 38 30 41 42 5 20 10 23 34 18 27 -5 29 -1
178 283 92 175 151 300 151 317 0 39 8 49 53 68 38 15 38 16 21 41 -13 20 -24
25 -58 25 -30 0 -62 12 -120 45 -47 27 -86 43 -96 40 -10 -3 -30 0 -44 7 -21
9 -26 17 -22 32 3 12 9 31 12 44 5 18 3 21 -11 16 -12 -5 -23 -1 -31 10 -11
16 -9 24 12 57 18 29 24 53 24 94 l0 55 51 25 c49 25 50 27 47 68 -3 37 -6 42
-34 50 -19 6 -37 20 -43 34 -11 23 -16 25 -56 20 l-44 -6 -6 57 c-12 110 -12
111 -53 114 -26 2 -44 -3 -60 -16 l-23 -20 -35 36 c-34 33 -35 37 -26 72 12
40 4 46 -23 16 -25 -28 -73 -27 -85 3 -5 12 -9 15 -9 7 0 -8 4 -24 8 -35 6
-15 2 -24 -17 -37 -24 -16 -27 -15 -74 14 -30 18 -56 45 -68 67 -10 21 -37 49
-59 64 l-40 27 -7 -46z m124 -690 l52 -7 0 -45 c0 -28 6 -52 16 -63 15 -17 15
-20 0 -43 l-16 -25 42 15 c22 8 42 13 43 12 1 -2 7 -17 13 -35 10 -29 9 -32
-19 -43 -26 -11 -29 -17 -29 -55 l0 -42 -67 -26 c-58 -23 -67 -25 -77 -11 -9
12 -17 13 -39 5 -16 -6 -50 -11 -76 -11 -42 0 -49 3 -60 26 -9 21 -16 25 -40
19 -27 -6 -28 -5 -34 40 -3 33 -13 55 -33 76 l-28 30 29 24 c19 16 37 23 50
19 57 -17 67 -8 51 42 -7 24 13 34 71 34 27 0 33 5 43 35 13 38 17 39 108 29z"/>
<path d="M3804 5905 c-8 -31 -32 -45 -78 -45 -35 0 -35 -1 -24 -26 11 -23 10
-29 -11 -45 -25 -21 -56 -25 -66 -9 -8 12 -16 12 -35 0 -12 -8 -11 -12 7 -32
12 -13 23 -36 25 -53 2 -24 8 -30 26 -30 15 0 29 -10 37 -25 18 -34 59 -40
120 -18 60 22 55 21 55 3 0 -20 21 -19 65 2 31 15 35 21 35 55 0 31 5 41 25
50 49 22 22 38 -31 18 -21 -9 -29 -7 -40 7 -11 15 -10 21 7 39 18 19 18 22 4
34 -9 8 -15 29 -15 56 l0 44 -50 0 c-45 0 -50 -2 -56 -25z"/>
<path d="M3060 6079 l-31 -60 31 -29 c25 -23 30 -36 30 -74 0 -34 -4 -46 -15
-46 -8 0 -15 -9 -15 -20 0 -17 7 -20 44 -20 26 0 48 6 56 15 8 10 17 12 29 5
12 -6 20 -4 29 10 9 14 7 40 -10 117 -16 80 -26 104 -51 131 -45 47 -62 42
-97 -29z"/>
<path d="M2900 6110 c-20 -20 -27 -50 -12 -50 5 0 32 7 60 15 52 16 70 35 33
35 -11 0 -23 5 -26 10 -10 16 -33 12 -55 -10z"/>
<path d="M2971 5997 c-1 -22 57 -80 70 -71 18 10 9 25 -22 36 -17 6 -34 20
-39 32 -8 18 -9 19 -9 3z"/>
<path d="M3362 5715 l-22 -45 -32 20 c-46 28 -94 27 -102 -2 -9 -36 -7 -39 13
-28 11 5 33 10 50 10 29 0 31 -3 31 -34 0 -36 12 -46 56 -46 14 0 27 -7 30
-15 10 -26 42 -36 90 -29 55 8 78 41 52 71 -9 10 -19 39 -22 65 -8 53 -18 62
-82 71 -40 7 -40 6 -62 -38z"/>
<path d="M3273 5378 c-4 -7 -8 -26 -9 -43 -1 -16 -5 -40 -8 -51 -9 -26 19 -41
42 -22 8 7 23 12 32 10 27 -4 20 61 -10 93 -26 28 -35 31 -47 13z"/>
<path d="M3138 5370 c-11 -7 -14 -18 -10 -32 9 -37 25 -39 48 -5 28 40 6 62
-38 37z"/>
<path d="M4907 5267 c-27 -11 -28 -14 -22 -57 6 -43 5 -46 -25 -63 -27 -17
-37 -17 -81 -7 -45 11 -50 15 -45 34 l5 22 -87 -17 c-48 -9 -104 -20 -125 -23
-36 -7 -40 -11 -85 -102 -45 -91 -48 -94 -74 -88 -21 4 -28 2 -28 -9 0 -8 -15
-24 -33 -35 -29 -16 -33 -24 -30 -49 5 -28 3 -30 -70 -52 l-75 -24 40 -74 40
-74 -22 -55 c-13 -31 -34 -63 -47 -71 -19 -13 -24 -23 -20 -43 4 -19 0 -29
-14 -38 -23 -15 -25 -32 -4 -32 9 0 20 -11 25 -25 5 -14 16 -25 25 -25 8 0 22
-11 30 -24 9 -13 25 -26 35 -29 24 -6 25 -20 4 -42 -15 -15 -15 -18 5 -39 11
-12 21 -30 21 -39 0 -9 7 -17 15 -17 8 0 16 -8 16 -17 1 -10 4 -5 8 12 3 16
14 31 23 33 21 4 71 -46 64 -64 -3 -8 0 -14 7 -14 31 0 35 -22 16 -78 -11 -31
-20 -80 -20 -111 -2 -53 0 -56 44 -96 39 -34 47 -47 53 -90 9 -68 41 -125 70
-125 13 0 29 -9 37 -20 7 -11 28 -26 46 -33 30 -13 39 -12 83 5 37 14 54 16
63 8 9 -7 20 -8 32 -2 10 6 30 14 44 20 16 6 29 21 33 39 4 15 17 38 29 51 21
22 21 25 5 52 -16 27 -15 29 11 54 19 19 33 24 51 19 21 -5 23 -3 13 8 -7 7
-13 23 -13 36 0 27 -2 28 -40 8 -28 -15 -32 -14 -71 12 -34 22 -44 25 -60 15
-55 -35 -84 56 -32 104 23 21 25 27 15 49 -7 15 -8 34 -3 47 5 13 6 49 3 81
-4 48 -2 57 12 57 22 0 20 27 -3 35 -10 3 -21 14 -24 24 -3 12 -18 21 -41 25
-34 7 -37 10 -34 38 3 27 8 33 49 45 47 13 47 13 39 48 -9 40 -8 41 43 50 30
6 40 14 52 41 15 37 27 41 65 19 14 -8 38 -14 54 -15 l30 0 -28 29 -28 29 27
46 c27 47 39 55 50 35 5 -6 12 -3 21 10 14 19 17 19 55 5 50 -17 59 -17 59 -3
0 6 13 26 29 44 l29 33 22 -23 c12 -13 35 -29 51 -35 17 -8 29 -20 29 -31 0
-19 8 -19 87 -3 28 5 39 40 20 62 -13 15 -12 23 9 72 22 50 32 59 100 99 41
24 82 54 91 67 9 15 25 24 40 24 40 0 17 17 -31 22 -25 3 -63 15 -86 27 -34
18 -47 19 -82 12 -51 -12 -54 -10 -62 33 -8 39 -27 42 -86 11 l-34 -18 -28 34
-28 33 35 29 c42 34 38 47 -14 47 -20 0 -46 6 -56 14 -16 11 -23 11 -49 -4
-20 -12 -38 -15 -51 -10 -14 5 -28 0 -48 -16 -16 -13 -42 -24 -58 -24 -25 0
-29 4 -29 29 0 20 -8 35 -22 45 -25 18 -23 18 -61 3z"/>
<path d="M5900 5088 c-32 -12 -35 -15 -22 -31 15 -18 -5 -95 -27 -99 -9 -2
-38 5 -65 15 -34 13 -52 15 -59 8 -6 -6 -19 -11 -29 -11 -9 0 -22 -8 -27 -19
-6 -10 -44 -38 -85 -61 -66 -38 -78 -49 -92 -86 -15 -40 -15 -46 -1 -67 14
-22 14 -27 -3 -54 -18 -31 -26 -34 -133 -49 -47 -6 -48 -6 -42 18 5 20 -1 28
-34 50 l-41 27 -15 -22 c-8 -12 -15 -29 -15 -38 0 -26 -9 -28 -61 -11 -50 16
-51 16 -68 -7 -14 -18 -20 -20 -26 -11 -6 9 -13 7 -26 -11 -17 -23 -17 -25 0
-44 10 -11 21 -32 23 -47 5 -27 3 -28 -34 -28 -21 0 -53 7 -69 16 -17 8 -32
14 -33 12 -1 -2 -7 -15 -14 -30 -8 -20 -21 -29 -47 -34 -35 -6 -37 -8 -33 -41
4 -36 -7 -46 -74 -67 -29 -9 -20 -25 18 -32 24 -4 38 -14 44 -29 5 -13 18 -26
29 -30 17 -5 18 -10 9 -35 -5 -17 -14 -30 -19 -30 -5 0 -10 -26 -10 -57 0 -32
0 -67 0 -78 -1 -11 2 -30 6 -42 5 -16 1 -28 -19 -46 -16 -15 -26 -35 -26 -52
0 -26 1 -27 23 -12 22 14 27 14 67 -13 41 -27 44 -28 75 -13 42 20 65 11 65
-23 0 -14 9 -39 20 -54 l21 -29 -35 -6 c-19 -4 -39 -4 -44 -1 -16 10 -37 -23
-24 -36 18 -18 14 -49 -8 -73 -11 -11 -26 -39 -33 -60 -10 -28 -20 -41 -36
-43 -15 -2 -19 -7 -13 -15 5 -7 16 -33 26 -59 13 -37 15 -52 6 -68 -9 -17 -8
-27 7 -52 15 -27 33 -36 119 -65 88 -29 104 -38 130 -73 16 -21 42 -46 58 -55
27 -17 28 -19 21 -72 -8 -67 8 -86 60 -70 26 8 40 5 83 -17 l52 -26 0 23 c0
13 -9 32 -20 42 -11 10 -20 31 -20 47 0 24 5 30 30 35 35 6 35 5 15 44 -15 27
-14 33 5 76 18 42 19 48 5 63 -22 25 -2 105 32 127 23 15 26 15 45 -5 17 -17
25 -19 45 -9 23 10 25 15 19 54 -7 54 8 66 121 86 115 22 139 12 153 -63 5
-30 14 -68 19 -83 11 -33 -4 -87 -25 -87 -19 0 -36 -34 -23 -47 12 -12 1 -43
-15 -43 -7 0 -21 -26 -33 -57 -24 -69 -55 -88 -101 -61 -39 22 -70 7 -64 -33
2 -16 8 -29 13 -29 5 0 9 -24 9 -53 0 -53 1 -54 38 -71 28 -13 45 -14 70 -7
28 8 42 6 87 -16 51 -25 55 -26 73 -10 10 9 30 17 44 17 21 0 29 8 41 39 l16
39 66 -20 66 -20 23 21 c12 11 35 21 50 21 28 0 28 0 11 26 -9 14 -15 27 -13
29 2 2 32 15 67 29 60 24 68 25 128 14 l65 -12 -7 -33 c-7 -39 3 -42 63 -18
31 13 44 13 68 4 36 -14 97 -29 90 -22 -3 3 4 23 14 43 11 21 33 101 50 177
17 76 42 178 56 227 43 152 12 256 -47 159 -23 -38 -40 -55 -72 -74 -26 -15
-43 28 -30 80 9 35 7 46 -20 102 -29 56 -32 72 -34 171 -2 107 -2 110 32 172
32 57 35 70 35 142 0 43 -6 99 -13 123 -15 50 -43 77 -63 60 -10 -8 -28 -6
-66 6 -70 23 -69 22 -58 50 6 17 6 42 -1 73 -9 38 -8 54 4 84 12 29 13 37 2
41 -8 4 -11 16 -8 34 4 24 2 25 -7 11 -14 -23 -24 -23 -88 4 -45 20 -52 26
-49 47 4 19 -2 26 -29 37 -21 9 -35 23 -38 37 -16 77 -15 84 12 116 24 29 30
31 54 22 19 -7 29 -7 34 0 7 13 8 12 -43 32 -37 14 -43 15 -54 1 -10 -12 -25
-14 -73 -9 -34 3 -74 11 -89 17 -23 9 -30 8 -42 -8 -11 -15 -18 -17 -32 -8
-10 6 -19 20 -21 30 -5 30 -63 63 -92 52z"/>
<path d="M3200 5055 c0 -3 6 -14 12 -25 11 -16 9 -22 -7 -34 -19 -14 -19 -15
-2 -33 19 -22 23 -43 7 -43 -5 0 -10 -12 -10 -27 0 -16 -6 -48 -14 -72 -13
-44 -13 -44 -19 -15 -3 16 -1 33 4 39 19 19 10 61 -16 75 -17 9 -25 22 -25 41
0 18 -6 29 -17 31 -24 5 -103 -49 -97 -66 3 -7 25 -22 50 -34 59 -29 55 -46
-21 -88 -70 -39 -80 -41 -65 -13 15 27 3 116 -16 123 -11 4 -14 -5 -14 -44 0
-40 -4 -50 -20 -55 -24 -8 -40 1 -40 21 0 12 -4 12 -20 4 -13 -7 -20 -21 -20
-40 0 -20 -8 -35 -24 -45 -13 -9 -27 -28 -31 -43 -3 -15 -14 -36 -24 -47 -12
-15 -15 -31 -11 -60 l5 -40 21 28 c26 32 35 33 59 7 18 -20 18 -21 -3 -36 -12
-8 -22 -21 -22 -28 0 -16 59 -9 81 10 14 13 18 10 34 -26 28 -62 89 -67 65 -5
-9 24 -7 32 12 52 l22 24 12 -23 c8 -14 10 -42 7 -70 -4 -33 -2 -48 6 -48 15
0 91 77 91 92 0 6 9 2 20 -10 11 -12 17 -28 14 -37 -4 -10 2 -24 15 -36 28
-26 23 -41 -17 -53 -27 -7 -32 -14 -32 -38 0 -18 9 -38 25 -52 22 -21 23 -25
10 -36 -20 -17 -19 -37 5 -67 12 -16 17 -30 11 -37 -23 -30 -18 -55 15 -87 39
-38 41 -45 16 -53 -26 -9 -18 -66 9 -66 21 0 23 -15 10 -72 -6 -27 -5 -42 5
-55 17 -23 17 -33 0 -33 -8 0 -25 -14 -37 -31 l-22 -31 32 7 c19 4 31 3 31 -4
0 -5 12 -11 28 -13 21 -2 33 -14 54 -53 34 -63 63 -87 97 -81 151 29 139 23
146 66 4 22 11 42 16 45 5 3 64 12 131 20 68 8 138 17 156 20 l32 6 0 -46 c0
-25 4 -45 9 -45 5 0 44 7 87 15 57 11 85 22 105 41 l28 27 29 -24 c16 -13 39
-41 50 -61 12 -20 35 -45 52 -55 16 -9 30 -25 30 -34 0 -39 136 -32 174 10 16
17 15 21 -9 62 -13 24 -25 56 -25 71 0 45 -17 74 -59 104 -23 16 -41 38 -42
49 -1 11 -5 3 -11 -17 -9 -33 -14 -38 -39 -38 -23 0 -34 8 -54 41 l-26 40 -21
-27 -21 -26 -25 47 c-22 45 -24 55 -17 142 4 59 12 99 21 108 8 7 14 30 14 49
0 20 5 36 11 36 7 0 9 10 5 25 -5 19 -2 25 11 26 14 0 13 2 -5 9 -12 5 -25 16
-28 24 -3 8 -19 19 -35 25 -19 6 -29 17 -29 29 0 11 -9 22 -20 25 -25 6 -26
39 -1 61 11 10 16 25 14 39 -3 16 4 28 25 44 15 11 36 42 46 67 l18 46 -38 70
c-36 67 -40 70 -74 70 -28 0 -41 6 -58 29 -29 40 -75 45 -128 15 -40 -24 -42
-24 -117 -10 -68 13 -80 13 -108 -1 -17 -9 -35 -28 -41 -44 -5 -16 -13 -29
-17 -29 -4 0 -14 25 -21 56 -17 69 -63 144 -88 144 -11 0 -31 9 -44 20 -21 16
-28 17 -43 6 -13 -9 -16 -20 -11 -40 6 -24 4 -27 -16 -24 -15 2 -22 9 -20 20
2 11 -6 20 -22 24 -17 4 -29 17 -36 39 -8 25 -21 37 -51 49 -43 17 -49 19 -49
11z"/>
<path d="M2947 4423 c-4 -21 1 -35 19 -54 15 -15 24 -37 24 -56 0 -16 3 -58 6
-91 l7 -61 45 -16 c25 -8 49 -15 54 -15 4 0 8 27 8 59 0 50 -4 65 -26 91 -15
17 -24 34 -21 37 4 3 -3 17 -13 31 -25 32 -25 46 0 39 32 -8 23 10 -17 38 -50
34 -79 33 -86 -2z"/>
<path d="M4200 4179 c0 -17 -6 -37 -14 -43 -22 -17 -36 -178 -18 -211 l13 -26
21 26 21 27 29 -51 c29 -50 58 -67 58 -35 0 9 9 28 19 43 11 14 24 51 30 81 6
30 14 66 17 79 6 21 4 23 -14 19 -17 -5 -23 -1 -28 19 -4 16 -2 28 7 34 11 7
10 9 -4 9 -11 0 -21 -9 -24 -20 -3 -11 -11 -20 -18 -20 -6 0 -22 9 -35 20 -13
11 -27 20 -32 20 -4 0 -8 11 -8 24 0 14 -4 28 -10 31 -6 4 -10 -7 -10 -26z"/>
<path d="M3070 4079 c0 -4 13 -10 30 -14 35 -8 39 -7 43 2 1 4 -15 10 -35 14
-21 3 -38 2 -38 -2z"/>
<path d="M3749 3712 l-127 -16 -13 -45 -14 -46 -90 -17 c-49 -10 -91 -17 -92
-18 -2 0 -3 -6 -3 -14 0 -8 -12 -17 -27 -21 -16 -3 -39 -15 -52 -26 -22 -18
-23 -21 -7 -37 9 -10 16 -26 16 -34 0 -43 5 -44 110 -33 55 6 100 8 100 4 0
-13 -43 -39 -65 -39 -11 0 -31 -7 -44 -16 l-22 -16 50 -31 c28 -18 51 -37 51
-44 0 -16 -5 -16 -39 1 -19 10 -45 13 -88 9 -60 -5 -61 -6 -51 -29 16 -34 -32
-114 -68 -114 -14 0 -46 -14 -70 -32 -52 -37 -58 -71 -19 -108 23 -21 27 -22
94 -12 75 11 114 7 108 -12 -3 -6 -11 -10 -18 -8 -7 2 -19 -4 -25 -13 -7 -9
-39 -23 -71 -32 -73 -18 -119 -60 -128 -115 -5 -28 -14 -42 -31 -50 -25 -12
-33 -48 -11 -48 30 0 134 22 169 35 35 14 38 13 48 -4 7 -14 5 -31 -5 -61 -8
-24 -15 -46 -15 -51 0 -15 52 -9 120 14 57 19 66 26 74 54 5 21 16 33 32 37
21 6 22 9 13 33 -15 41 -6 50 65 58 57 6 71 4 100 -15 21 -12 39 -34 46 -54
12 -38 50 -57 50 -25 0 10 9 27 21 37 17 17 26 18 60 10 42 -11 47 -22 24 -52
-13 -18 -13 -22 6 -42 14 -15 20 -31 17 -48 -4 -21 0 -27 25 -36 24 -8 35 -7
54 5 19 13 39 14 130 5 153 -14 158 -14 173 15 19 35 67 42 121 17 24 -10 53
-29 63 -41 25 -27 46 -12 46 33 0 22 8 40 25 56 28 26 33 55 10 64 -11 4 -13
16 -9 48 5 38 3 46 -25 75 -17 18 -31 36 -31 41 0 4 16 48 36 97 19 48 38 110
41 136 5 42 11 51 43 73 25 16 41 36 45 55 5 25 15 33 61 51 56 20 90 50 119
105 16 28 15 33 -4 78 -19 45 -42 60 -56 36 -5 -7 -13 -5 -25 6 -16 14 -21 14
-62 -4 -45 -19 -46 -19 -89 1 -24 10 -48 26 -52 34 -12 21 -41 17 -67 -11 -33
-35 -111 -50 -175 -32 -41 11 -49 17 -47 33 2 14 -6 24 -22 32 -13 6 -36 31
-51 56 -31 53 -51 63 -79 38 -14 -13 -58 -26 -128 -39 l-108 -20 0 49 c0 26
-3 47 -7 47 -5 -1 -65 -9 -134 -17z"/>
<path d="M5688 3555 c-37 -8 -72 -16 -77 -20 -6 -3 -8 -27 -5 -53 l6 -47 -43
-18 c-42 -17 -43 -17 -66 5 l-23 21 -15 -36 c-19 -45 -19 -46 1 -68 15 -17 15
-22 -5 -69 -20 -46 -20 -52 -6 -79 23 -45 19 -61 -15 -67 -36 -8 -37 -15 -9
-54 14 -18 20 -37 16 -50 -4 -17 -2 -20 11 -15 9 3 39 9 66 12 l48 6 -5 34
c-4 20 -2 33 5 33 6 0 8 13 6 31 -4 27 0 32 32 49 33 17 40 17 56 5 40 -30 60
-19 84 45 13 33 29 60 36 60 16 0 19 16 4 25 -13 8 11 54 40 78 14 12 19 24
15 35 -4 9 -12 42 -17 72 -9 55 -28 81 -57 79 -9 0 -46 -7 -83 -14z"/>
<path d="M4835 3350 c-13 -19 -38 -37 -70 -49 -39 -14 -54 -26 -67 -54 -10
-20 -31 -43 -47 -53 -23 -14 -31 -27 -36 -63 -4 -25 -22 -83 -40 -129 -33 -82
-36 -112 -10 -112 19 0 38 -64 30 -99 -4 -21 -2 -30 9 -34 26 -10 19 -60 -12
-90 -17 -17 -29 -39 -30 -59 -2 -18 -12 -42 -23 -54 -20 -22 -18 -49 6 -58 8
-3 16 -30 20 -69 7 -62 9 -65 46 -86 31 -18 39 -28 39 -51 0 -23 8 -35 39 -56
47 -31 66 -70 57 -119 -7 -34 -6 -35 17 -30 38 10 41 -11 8 -59 -17 -25 -31
-50 -31 -56 0 -23 83 -190 94 -189 22 1 41 14 41 28 0 28 24 22 27 -6 3 -27 5
-28 65 -31 60 -3 63 -2 69 23 4 15 4 48 1 75 -5 43 -4 49 16 54 22 6 22 6 2
22 -11 8 -19 24 -17 35 2 13 -5 27 -17 36 -12 8 -21 20 -21 27 0 8 -6 16 -14
19 -10 4 -23 -9 -39 -36 -20 -33 -23 -46 -15 -69 16 -44 5 -54 -25 -22 -23 25
-27 35 -21 69 4 32 1 46 -15 66 l-20 26 23 22 c14 13 29 19 39 15 29 -11 65 4
69 28 2 13 10 24 18 26 12 2 14 -8 12 -52 l-4 -55 52 -26 c29 -15 74 -30 100
-34 47 -7 48 -7 54 19 6 33 52 48 61 21 3 -9 28 -31 56 -49 38 -25 54 -30 64
-22 16 13 30 -17 15 -35 -6 -8 -6 -15 2 -23 9 -9 7 -12 -11 -12 -22 0 -22 0 6
-40 15 -22 34 -40 40 -40 18 0 43 53 37 78 -4 14 0 22 14 26 26 9 40 64 21 77
-8 5 -20 9 -26 9 -9 0 -13 19 -13 60 l0 60 30 0 c41 0 59 36 36 71 -22 34 -11
66 26 73 43 9 42 9 61 -24 16 -26 20 -28 42 -18 26 11 35 51 15 63 -12 7 -14
45 -2 45 4 0 38 -18 76 -40 53 -31 72 -38 86 -30 26 14 40 12 40 -5 0 -19 19
-19 43 -1 13 10 16 21 11 40 -6 24 -4 26 25 26 21 0 31 5 31 15 0 8 13 21 29
30 16 8 32 24 36 34 3 11 19 22 35 26 25 5 30 12 30 36 0 24 7 32 48 52 26 13
55 22 65 19 14 -3 17 3 17 32 0 37 2 39 55 40 23 1 32 7 40 30 9 28 7 32 -64
97 -47 44 -83 69 -97 69 -13 0 -39 14 -59 31 -31 27 -35 36 -29 63 5 31 3 33
-34 44 -56 17 -59 16 -72 -23 -10 -31 -16 -35 -45 -35 -18 0 -38 -7 -45 -15
-17 -21 -33 -19 -89 10 -41 20 -54 23 -84 14 -31 -8 -44 -6 -87 16 -27 14 -50
32 -50 40 0 19 -74 21 -132 3 -35 -10 -44 -9 -97 17 -51 24 -63 26 -91 17 -28
-10 -35 -9 -64 15 -31 24 -33 29 -25 62 13 55 11 67 -13 80 -13 7 -35 29 -49
49 -23 32 -41 42 -130 72 -82 28 -106 40 -118 62 -9 16 -18 28 -21 28 -3 0
-14 -14 -25 -30z"/>
<path d="M6285 3083 c-22 -9 -41 -18 -43 -19 -2 -1 2 -12 8 -24 15 -28 -2 -50
-39 -50 -29 0 -65 -31 -75 -66 -8 -26 26 -59 70 -68 43 -9 194 -150 187 -175
-4 -15 3 -20 32 -25 25 -5 39 -15 47 -32 16 -34 38 -30 72 12 26 32 28 41 22
87 -5 44 -2 55 16 74 12 13 31 23 43 23 17 0 25 12 43 68 30 92 29 122 -2 122
-13 0 -43 7 -67 15 -39 14 -47 14 -82 0 -24 -10 -51 -13 -69 -10 -26 6 -28 10
-23 35 7 33 4 36 -55 43 -30 4 -59 0 -85 -10z"/>
<path d="M5601 3014 c0 -11 3 -14 6 -6 3 7 2 16 -1 19 -3 4 -6 -2 -5 -13z"/>
<path d="M3583 2783 c-19 -4 -20 -8 -12 -35 5 -18 8 -32 6 -33 -1 0 -14 -6
-29 -12 -17 -8 -28 -22 -33 -42 -6 -28 -13 -33 -78 -52 -40 -12 -93 -24 -119
-27 -46 -4 -48 -3 -48 20 0 14 7 45 15 68 15 42 15 42 -8 35 -12 -4 -63 -14
-114 -22 -85 -14 -92 -17 -99 -42 -8 -29 -8 -29 1 -54 6 -13 0 -20 -24 -28
-19 -7 -31 -18 -31 -29 0 -10 -7 -25 -15 -34 -13 -13 -12 -17 11 -35 15 -12
30 -21 35 -21 5 0 6 -6 4 -13 -3 -6 17 -43 45 -82 27 -38 50 -72 50 -76 0 -3
-8 -13 -19 -23 -17 -16 -19 -15 -31 13 -7 18 -17 28 -25 25 -7 -3 -23 0 -35 6
-18 10 -21 17 -15 46 6 33 -6 47 -21 23 -4 -7 -20 -9 -40 -6 -44 7 -56 -9 -52
-75 2 -41 7 -54 20 -56 12 -2 21 6 28 23 13 34 53 32 58 -2 2 -13 7 -23 11
-23 4 0 15 -6 24 -13 17 -12 17 -16 2 -76 -9 -34 -15 -65 -12 -67 8 -9 37 27
37 46 0 22 12 31 28 21 8 -5 8 -20 -3 -61 -8 -30 -15 -76 -15 -101 0 -29 -6
-51 -15 -59 -14 -11 -13 -15 6 -33 20 -19 23 -19 34 -4 13 18 91 25 80 7 -3
-6 6 -15 20 -20 32 -12 27 -36 -6 -32 -86 10 -149 5 -149 -13 0 -19 26 -25
120 -26 30 0 40 -7 68 -47 31 -45 31 -47 14 -64 -17 -17 -21 -17 -64 -2 -44
15 -47 17 -41 45 5 26 3 29 -20 29 -14 0 -32 3 -40 6 -17 6 -32 -39 -19 -62 4
-8 28 -25 52 -38 24 -13 46 -28 48 -34 6 -18 -31 -18 -77 -1 -33 12 -49 26
-63 53 -17 32 -17 39 -4 57 12 18 11 24 -12 60 -30 46 -59 51 -67 12 -3 -16
-10 -47 -15 -71 -9 -38 -7 -49 20 -102 22 -44 36 -60 51 -60 12 0 34 -9 50
-21 40 -29 106 -37 115 -15 7 18 41 21 64 6 12 -8 11 -10 -6 -10 -14 0 -21 -6
-20 -17 1 -11 -10 -19 -32 -25 -24 -7 -32 -13 -28 -24 3 -9 6 -29 6 -44 0 -17
9 -38 20 -48 20 -18 20 -20 4 -49 -23 -39 -14 -59 28 -67 32 -6 34 -9 30 -36
-4 -28 10 -41 22 -21 4 5 23 12 45 16 37 6 39 9 56 66 16 51 24 62 62 84 23
14 43 30 43 35 0 5 11 20 25 34 21 21 25 35 25 81 0 42 3 55 15 55 12 0 15
-14 15 -62 0 -90 6 -102 58 -127 l46 -23 17 21 c10 12 24 21 33 21 8 0 27 12
43 26 21 20 27 33 25 59 -2 18 1 36 7 40 6 3 11 14 11 24 0 34 32 83 61 93 16
5 29 17 29 24 0 8 13 20 29 25 16 6 32 17 35 25 3 8 16 14 28 14 51 0 70 13
90 59 l20 46 19 -24 c21 -26 24 -41 9 -41 -6 0 -18 -15 -27 -34 -15 -32 -15
-37 1 -61 17 -26 17 -28 -5 -51 -35 -37 -50 -32 -43 16 4 27 3 40 -5 40 -6 0
-11 -5 -11 -10 0 -6 -18 -30 -40 -54 -35 -37 -40 -49 -40 -89 l0 -46 35 15
c19 7 43 14 54 14 34 0 71 -22 77 -47 4 -13 15 -28 25 -34 11 -5 19 -16 19
-24 0 -9 10 -15 23 -15 18 0 23 5 23 23 -1 16 5 23 24 25 34 4 85 85 70 112
-9 17 -5 19 37 25 62 8 77 17 81 47 2 20 -11 37 -66 87 -81 71 -91 95 -62 151
11 21 20 48 20 60 0 17 6 20 39 20 31 0 41 4 46 20 13 40 35 10 35 -47 0 -13
6 -23 13 -23 6 0 23 -17 36 -37 21 -33 22 -38 7 -48 -11 -9 -16 -28 -16 -62
l0 -50 50 -21 c27 -11 52 -17 55 -12 3 5 0 12 -5 15 -10 6 -8 37 6 87 4 12 20
19 54 24 l49 6 25 74 c21 64 22 75 10 85 -20 16 -78 16 -109 -1 -23 -12 -29
-11 -68 17 -27 20 -43 40 -45 57 -4 31 9 33 61 11 34 -14 36 -14 42 5 4 11 15
20 27 20 11 0 27 9 36 20 10 12 31 22 49 23 27 2 33 6 33 24 0 36 -19 66 -61
96 -29 21 -39 35 -39 55 0 21 -9 32 -39 49 -37 21 -39 25 -43 81 -2 37 -10 66
-20 76 -19 18 -33 55 -24 63 10 11 -66 62 -102 69 -32 6 -39 4 -63 -26 l-27
-32 -132 11 c-113 10 -135 10 -155 -3 -19 -12 -30 -13 -71 -2 -47 12 -49 13
-46 45 3 23 -3 40 -18 56 -18 20 -20 26 -10 45 10 18 9 24 -1 31 -22 14 -33 5
-42 -35 -7 -27 -13 -36 -24 -32 -8 3 -24 6 -34 6 -14 0 -26 13 -39 43 -26 59
-67 76 -147 60z m132 -299 c17 -15 54 -42 83 -61 28 -18 52 -37 52 -42 0 -4
-13 -38 -30 -73 l-29 -65 -111 -28 c-61 -15 -112 -26 -113 -24 -45 67 -59 79
-98 79 l-39 0 0 66 c0 63 2 69 42 116 l42 50 55 -5 c31 -3 65 -2 76 3 31 13
38 12 70 -16z"/>
<path d="M3657 2473 c-4 -4 -36 -6 -71 -5 -63 2 -65 1 -95 -35 -25 -30 -31
-47 -31 -85 0 -46 1 -48 28 -48 19 0 37 -11 62 -41 l36 -41 64 17 c106 26 128
35 133 53 3 9 12 34 21 54 l16 36 -43 25 c-23 14 -53 37 -66 51 -24 26 -42 32
-54 19z"/>
<path d="M6367 2620 c-5 -20 -10 -22 -41 -16 -34 6 -35 5 -41 -27 -7 -34 -39
-65 -50 -47 -3 5 -20 2 -40 -7 -25 -12 -35 -23 -35 -39 0 -25 -24 -54 -45 -54
-7 0 -20 -11 -29 -24 -8 -14 -25 -27 -36 -31 -12 -4 -25 -18 -30 -31 -6 -14
-18 -24 -29 -24 -14 0 -18 -5 -14 -20 7 -28 24 -36 35 -16 5 9 17 16 27 16 11
0 21 7 25 15 9 24 29 18 22 -7 -8 -31 14 -89 33 -86 8 2 18 16 22 31 12 43 29
59 58 52 31 -6 40 0 63 40 14 25 24 30 62 33 41 3 47 7 74 50 41 64 67 154 52
182 -6 11 -16 20 -23 20 -7 0 -22 3 -33 6 -16 4 -23 0 -27 -16z"/>
<path d="M2784 2371 c-37 -7 -110 -67 -119 -98 -5 -20 -3 -23 18 -23 14 0 39
-3 56 -6 l31 -6 0 51 c0 45 3 53 25 63 14 6 25 15 25 20 0 4 -1 7 -2 7 -2 -1
-17 -4 -34 -8z"/>
<path d="M2805 2300 c-9 -14 6 -30 46 -54 30 -17 32 -18 26 -2 -4 10 -7 29 -7
42 0 20 -5 24 -29 24 -17 0 -33 -5 -36 -10z"/>
<path d="M5920 2235 c-18 -22 -8 -60 18 -63 16 -3 22 2 22 15 0 11 5 24 10 29
7 7 3 14 -14 22 -19 8 -27 8 -36 -3z"/>
<path d="M5760 2187 c0 -33 -26 -65 -58 -69 -23 -3 -28 -9 -36 -46 l-9 -44
-45 7 c-32 5 -47 3 -53 -7 -14 -21 -10 -68 8 -98 l16 -29 39 20 c21 11 38 17
38 14 0 -14 -31 -65 -40 -65 -6 0 -10 -4 -10 -10 0 -5 11 -10 25 -10 28 0 29
-3 15 -30 -13 -25 7 -70 31 -70 10 0 21 9 24 20 5 15 15 20 41 20 19 0 34 5
34 10 0 6 -6 10 -14 10 -30 0 -35 24 -11 53 22 28 23 29 54 13 17 -9 31 -15
31 -13 0 2 -7 25 -16 51 -16 46 -16 48 5 62 28 20 27 34 -4 34 -30 0 -29 -2
-9 45 14 35 14 39 0 47 -17 10 -22 63 -6 73 17 10 -1 35 -26 35 -18 0 -24 -5
-24 -23z"/>
<path d="M2760 2180 c-26 -16 -3 -21 31 -6 31 13 32 14 9 15 -14 0 -32 -3 -40
-9z"/>
<path d="M2776 2128 c-21 -30 -14 -33 23 -10 17 10 28 22 24 25 -12 13 -32 7
-47 -15z"/>
<path d="M2618 2026 c-44 -30 -45 -33 -27 -44 14 -9 25 -9 39 -2 12 6 21 7 25
0 11 -18 70 25 73 53 3 25 0 27 -30 26 -20 0 -51 -13 -80 -33z"/>
<path d="M2960 2015 c0 -8 -18 -22 -40 -31 -40 -16 -41 -17 -19 -32 17 -12 26
-13 40 -4 27 17 47 15 59 -8 16 -29 50 -9 50 29 0 25 -3 28 -22 24 -19 -5 -21
-3 -10 8 20 21 14 29 -23 29 -25 0 -35 -5 -35 -15z"/>
<path d="M2750 1984 c0 -11 -6 -15 -20 -11 -36 9 -42 -16 -19 -77 21 -55 23
-56 60 -56 22 0 39 4 39 9 0 5 3 16 6 25 5 12 -1 16 -24 16 -40 0 -50 27 -16
42 19 9 24 17 20 32 -3 12 -6 24 -6 29 0 15 -40 7 -40 -9z"/>
<path d="M5174 1959 c-4 -7 10 -26 32 -45 38 -33 64 -43 64 -25 0 5 3 16 6 24
3 10 -3 17 -21 21 -14 4 -23 10 -20 15 5 9 -17 21 -40 21 -8 0 -17 -5 -21 -11z"/>
<path d="M2580 1880 c-19 -10 -47 -23 -62 -29 -21 -8 -28 -17 -28 -36 0 -35
28 -44 51 -17 9 12 23 22 31 22 22 1 46 25 53 53 8 32 2 33 -45 7z"/>
<path d="M5516 1893 c-21 -21 17 -80 42 -64 10 6 10 11 -3 21 -8 7 -15 18 -15
26 0 15 -15 26 -24 17z"/>
<path d="M2546 1769 c-32 -25 -32 -36 -5 -65 20 -22 24 -22 50 -8 35 18 41 67
10 84 -25 13 -24 13 -55 -11z"/>
<path d="M4658 1727 c-21 -28 -38 -59 -38 -69 0 -20 94 -73 115 -64 14 5 9 92
-6 112 -5 6 -7 18 -4 26 3 8 -2 21 -12 30 -17 15 -20 13 -55 -35z"/>
<path d="M2781 1692 c-14 -12 -18 -25 -15 -43 5 -24 9 -26 39 -19 64 14 72 35
25 62 -28 16 -31 16 -49 0z"/>
<path d="M5257 1675 c-20 -14 -23 -45 -4 -45 6 1 24 6 39 13 l27 12 -23 16
c-18 14 -25 14 -39 4z"/>
<path d="M2413 1646 c-26 -9 -30 -14 -22 -29 7 -13 17 -15 37 -11 35 9 34 8
25 31 -7 18 -12 19 -40 9z"/>
<path d="M2638 1610 c2 -27 10 -54 18 -61 8 -6 14 -18 14 -25 0 -19 13 -17 44
7 31 24 34 43 6 36 -14 -3 -20 0 -20 10 0 17 -46 83 -58 83 -4 0 -5 -22 -4
-50z"/>
<path d="M2921 1576 c-7 -8 -10 -19 -7 -25 10 -16 -5 -41 -25 -41 -10 0 -19
-7 -19 -15 0 -8 -9 -15 -20 -15 -11 0 -20 -4 -20 -10 0 -5 -6 -10 -13 -10 -18
0 -97 -82 -97 -101 0 -9 11 -26 25 -39 14 -13 25 -29 25 -37 0 -18 49 -28 71
-14 10 6 27 11 37 11 10 0 33 11 52 25 19 14 44 25 55 25 37 0 52 26 72 122 6
32 -26 83 -60 94 -12 3 -31 15 -43 25 -18 17 -23 18 -33 5z"/>
<path d="M4540 1576 c0 -7 7 -19 15 -26 13 -11 21 -10 43 0 l27 13 -30 13
c-39 17 -55 17 -55 0z"/>
<path d="M4630 1525 c-10 -12 -10 -15 4 -15 9 0 16 -8 16 -19 0 -12 11 -23 31
-30 45 -15 52 -6 29 40 -22 42 -56 53 -80 24z"/>
<path d="M4325 1456 c1 -86 36 -127 83 -97 22 14 4 61 -23 61 -31 0 -43 20
-21 35 14 11 15 17 5 39 -7 14 -19 26 -28 26 -14 0 -16 -12 -16 -64z"/>
<path d="M3980 1450 c-19 -11 -43 -19 -52 -20 -23 0 -23 -5 3 -40 22 -30 26
-30 104 -15 27 6 46 56 30 78 -16 22 -41 21 -85 -3z"/>
<path d="M3832 1379 c4 -30 35 -49 48 -29 16 25 7 45 -23 48 -25 3 -28 0 -25
-19z"/>
<path d="M3520 1345 c-19 -31 -20 -37 -7 -55 l14 -21 6 20 c5 22 52 45 68 35
5 -3 9 -2 9 1 0 8 -53 54 -62 55 -3 0 -16 -16 -28 -35z"/>
<path d="M3644 1331 c-21 -21 32 -67 66 -56 14 4 20 15 20 34 0 25 -3 27 -41
26 -22 0 -42 -2 -45 -4z"/>
<path d="M3403 1318 c-11 -14 -33 -75 -33 -90 0 -5 25 -20 55 -34 54 -23 95
-30 108 -18 10 10 -60 127 -85 140 -29 17 -33 17 -45 2z"/>
<path d="M3796 1284 c-9 -22 -9 -22 24 -29 17 -4 30 -13 30 -21 0 -8 2 -14 5
-14 10 0 55 24 55 30 0 15 -26 30 -52 30 -15 0 -28 5 -28 10 0 16 -27 11 -34
-6z"/>
<path d="M3562 1252 c-32 -18 -34 -32 -4 -32 9 0 23 -7 32 -15 22 -20 65 -5
75 25 8 26 8 26 -35 33 -24 4 -46 0 -68 -11z"/>
<path d="M3766 1242 c-3 -3 -6 -16 -6 -30 0 -23 1 -24 22 -10 12 8 23 19 25
25 4 11 -32 24 -41 15z"/>
<path d="M2632 1231 c-11 -7 -11 -9 2 -14 9 -4 16 -12 16 -20 0 -15 50 -47 74
-47 32 0 15 60 -22 78 -30 14 -52 15 -70 3z"/>
<path d="M2590 1151 c0 -10 22 -31 32 -31 17 0 7 28 -12 33 -11 3 -20 2 -20
-2z"/>
<path d="M3283 1083 c-21 -8 -15 -43 10 -52 16 -7 27 -4 42 11 20 19 20 19 1
34 -20 14 -32 16 -53 7z"/>
<path d="M3665 1072 c-46 -8 -63 -75 -21 -86 32 -8 56 2 55 23 -4 46 -14 66
-34 63z"/>
<path d="M3379 1043 c-1 -5 -1 -12 0 -17 1 -5 -3 -22 -10 -38 -12 -30 0 -58
26 -58 17 0 27 41 14 56 -5 7 -7 24 -3 38 5 20 2 26 -10 26 -9 0 -17 -3 -17
-7z"/>
<path d="M3223 1001 c-22 -19 -22 -20 -5 -42 l19 -22 51 29 50 28 -36 13 c-48
16 -53 16 -79 -6z"/>
<path d="M3385 503 c-76 -10 -118 -20 -138 -34 -15 -11 -64 -26 -109 -34 -44
-8 -89 -21 -98 -30 -9 -8 -26 -15 -37 -15 -11 0 -28 -9 -38 -20 -10 -11 -24
-20 -32 -20 -7 0 -13 -8 -13 -17 0 -10 -23 -40 -50 -68 -36 -37 -52 -62 -57
-88 -5 -35 -2 -41 55 -96 73 -72 94 -80 115 -47 14 20 24 24 68 24 28 1 64 4
80 7 16 4 34 3 40 -1 7 -4 46 -6 87 -5 56 2 83 7 103 22 15 10 51 24 80 31 30
6 61 17 70 25 8 7 32 13 52 13 34 0 38 4 88 85 28 47 55 85 60 85 5 0 15 12
23 27 13 25 12 28 -8 38 -13 6 -22 22 -24 40 -4 34 -27 54 -60 55 -13 0 -35 9
-49 20 -30 23 -52 24 -208 3z"/>
</g>
</svg>
