<?xml version="1.0" standalone="no"?>
<!DOCTYPE svg PUBLIC "-//W3C//DTD SVG 20010904//EN"
 "http://www.w3.org/TR/2001/REC-SVG-20010904/DTD/svg10.dtd">
<svg version="1.0" xmlns="http://www.w3.org/2000/svg"
 width="512.000000pt" height="512.000000pt" viewBox="0 0 512.000000 512.000000"
 preserveAspectRatio="xMidYMid meet">

<g transform="translate(0.000000,512.000000) scale(0.100000,-0.100000)"
fill="#000000" stroke="none">
<path d="M605 4914 c-245 -52 -419 -184 -529 -401 -14 -29 -37 -95 -51 -149
l-25 -96 0 -1308 0 -1307 24 -95 c64 -254 231 -437 478 -526 68 -24 89 -26
293 -31 l220 -6 5 -345 c3 -236 9 -351 17 -365 26 -46 71 -77 117 -82 78 -9
76 -10 372 219 44 35 98 77 120 93 21 17 169 131 329 255 l290 225 1140 5
1140 5 73 27 c112 41 209 103 294 189 64 64 85 95 127 181 87 179 82 81 79
1593 l-3 1330 -28 80 c-82 241 -237 400 -477 486 l-65 24 -1960 1 c-1078 1
-1969 0 -1980 -2z m3937 -332 c110 -45 191 -129 240 -251 l23 -56 0 -1315 0
-1315 -23 -56 c-49 -122 -130 -206 -240 -251 l-57 -23 -1155 -5 c-1050 -5
-1158 -7 -1185 -22 -16 -9 -205 -152 -420 -317 l-390 -302 -5 263 c-6 294 -9
311 -80 353 -32 18 -57 20 -325 25 -271 5 -294 7 -347 28 -110 44 -191 129
-240 251 l-23 56 -3 1264 c-1 763 1 1292 7 1333 13 94 59 187 121 248 58 56
90 75 170 101 52 17 158 18 1965 16 l1910 -2 57 -23z"/>
</g>
</svg>
