<svg version="1.1" id="Layer_1" xmlns="http://www.w3.org/2000/svg" xmlns:xlink="http://www.w3.org/1999/xlink" x="0px" y="0px"
	 width="100%" viewBox="0 0 512 512" enable-background="new 0 0 512 512" xml:space="preserve">
<path fill="#000000" opacity="1.000000" stroke="none" 
	d="
M1.000000,356.000000 
	C1.000000,263.645782 1.000000,171.291550 1.369543,78.365585 
	C2.156082,77.116829 2.670642,76.480782 2.974970,75.756409 
	C5.998847,68.558929 8.073812,60.776260 12.152198,54.242039 
	C26.440928,31.349207 47.808212,20.122948 74.545113,20.081673 
	C195.541443,19.894886 316.538239,19.989483 437.534821,20.042036 
	C441.947357,20.043953 446.403046,20.379583 450.764771,21.044304 
	C475.328918,24.787859 493.724060,37.570229 505.040619,59.693501 
	C508.605469,66.662628 510.396912,74.538902 513.000000,82.000000 
	C513.000000,171.687561 513.000000,261.375122 512.615051,351.666931 
	C510.869751,362.296600 507.575928,371.629669 501.980560,380.073059 
	C487.232483,402.327728 466.326813,413.810394 439.771515,413.911682 
	C370.809113,414.174622 301.845032,413.979797 232.881775,414.083099 
	C230.440842,414.086761 227.574554,414.714172 225.643188,416.087158 
	C220.214523,419.946411 215.246567,424.445526 209.962051,428.517273 
	C192.877670,441.681030 175.762421,454.805237 158.600357,467.867523 
	C148.038467,475.906281 137.501129,483.989410 126.688400,491.681000 
	C121.887848,495.095856 116.245644,494.997101 111.171783,491.966431 
	C106.721031,489.307983 103.159309,485.551575 103.038666,479.945282 
	C102.606705,459.872192 102.331100,439.795746 102.003853,419.720459 
	C101.974770,417.935913 102.000000,416.150543 102.000000,414.000000 
	C96.132233,414.000000 90.673515,413.894348 85.220207,414.021179 
	C72.266167,414.322449 59.401241,414.102051 47.166775,408.988831 
	C26.851036,400.498169 12.359599,386.401672 4.966317,365.385864 
	C3.841290,362.187927 2.331712,359.125244 1.000000,356.000000 
M33.000000,118.500000 
	C33.000000,192.666275 32.960354,266.832581 33.043919,340.998779 
	C33.056068,351.783051 37.099884,361.223480 44.552830,368.988373 
	C53.215595,378.013733 64.309929,381.685760 76.498665,381.932129 
	C90.826035,382.221741 105.165176,381.879486 119.496361,382.050293 
	C126.786110,382.137146 133.232849,387.034760 133.913315,395.001251 
	C134.629684,403.387726 134.787827,411.829651 134.964645,420.252106 
	C135.129944,428.126038 135.000000,436.006134 135.000000,444.319855 
	C136.188431,443.807953 136.666641,443.705261 137.016922,443.436096 
	C148.595459,434.537781 160.188522,425.658020 171.722076,416.701660 
	C182.632950,408.228851 193.563187,399.777252 204.325348,391.118011 
	C211.734528,385.156586 219.342392,381.687653 229.512726,381.756531 
	C298.342377,382.222900 367.176788,382.050110 436.009399,381.939636 
	C445.117676,381.925018 453.906006,380.214172 461.843231,375.066895 
	C473.915924,367.237823 480.794067,356.058441 480.846558,341.991455 
	C481.157532,258.659912 481.000061,175.326645 480.999054,91.993958 
	C480.999054,90.660706 481.225983,89.273918 480.942749,88.002136 
	C475.619873,64.100060 459.778046,52.209339 437.495117,52.150505 
	C317.163544,51.832779 196.830597,51.941818 76.498596,52.164661 
	C70.206863,52.176308 63.428188,53.492199 57.723576,56.073532 
	C41.491577,63.418510 33.242821,76.564590 33.016190,94.500381 
	C32.919331,102.165764 33.000000,109.833389 33.000000,118.500000 
z"/>
<path fill="#FFFFFF" opacity="1.000000" stroke="none" 
	d="
M1.000000,356.468658 
	C2.331712,359.125244 3.841290,362.187927 4.966317,365.385864 
	C12.359599,386.401672 26.851036,400.498169 47.166775,408.988831 
	C59.401241,414.102051 72.266167,414.322449 85.220207,414.021179 
	C90.673515,413.894348 96.132233,414.000000 102.000000,414.000000 
	C102.000000,416.150543 101.974770,417.935913 102.003853,419.720459 
	C102.331100,439.795746 102.606705,459.872192 103.038666,479.945282 
	C103.159309,485.551575 106.721031,489.307983 111.171783,491.966431 
	C116.245644,494.997101 121.887848,495.095856 126.688400,491.681000 
	C137.501129,483.989410 148.038467,475.906281 158.600357,467.867523 
	C175.762421,454.805237 192.877670,441.681030 209.962051,428.517273 
	C215.246567,424.445526 220.214523,419.946411 225.643188,416.087158 
	C227.574554,414.714172 230.440842,414.086761 232.881775,414.083099 
	C301.845032,413.979797 370.809113,414.174622 439.771515,413.911682 
	C466.326813,413.810394 487.232483,402.327728 501.980560,380.073059 
	C507.575928,371.629669 510.869751,362.296600 512.615051,352.135620 
	C513.000000,405.638367 513.000000,459.276733 513.000000,512.957520 
	C342.451660,512.957520 171.903320,512.957520 1.000000,512.957520 
	C1.000000,460.979645 1.000000,408.958466 1.000000,356.468658 
z"/>
<path fill="#FFFFFF" opacity="1.000000" stroke="none" 
	d="
M513.000000,81.531342 
	C510.396912,74.538902 508.605469,66.662628 505.040619,59.693501 
	C493.724060,37.570229 475.328918,24.787859 450.764771,21.044304 
	C446.403046,20.379583 441.947357,20.043953 437.534821,20.042036 
	C316.538239,19.989483 195.541443,19.894886 74.545113,20.081673 
	C47.808212,20.122948 26.440928,31.349207 12.152198,54.242039 
	C8.073812,60.776260 5.998847,68.558929 2.974970,75.756409 
	C2.670642,76.480782 2.156082,77.116829 1.369543,77.896927 
	C1.000000,52.350090 1.000000,26.700182 1.000000,1.053915 
	C171.666672,1.057555 342.333344,1.057555 513.000000,1.057555 
	C513.000000,27.764301 513.000000,54.413490 513.000000,81.531342 
z"/>
<path fill="#FFFFFF" opacity="1.000000" stroke="none" 
	d="
M33.000000,118.000000 
	C33.000000,109.833389 32.919331,102.165764 33.016190,94.500381 
	C33.242821,76.564590 41.491577,63.418510 57.723576,56.073532 
	C63.428188,53.492199 70.206863,52.176308 76.498596,52.164661 
	C196.830597,51.941818 317.163544,51.832779 437.495117,52.150505 
	C459.778046,52.209339 475.619873,64.100060 480.942749,88.002136 
	C481.225983,89.273918 480.999054,90.660706 480.999054,91.993958 
	C481.000061,175.326645 481.157532,258.659912 480.846558,341.991455 
	C480.794067,356.058441 473.915924,367.237823 461.843231,375.066895 
	C453.906006,380.214172 445.117676,381.925018 436.009399,381.939636 
	C367.176788,382.050110 298.342377,382.222900 229.512726,381.756531 
	C219.342392,381.687653 211.734528,385.156586 204.325348,391.118011 
	C193.563187,399.777252 182.632950,408.228851 171.722076,416.701660 
	C160.188522,425.658020 148.595459,434.537781 137.016922,443.436096 
	C136.666641,443.705261 136.188431,443.807953 135.000000,444.319855 
	C135.000000,436.006134 135.129944,428.126038 134.964645,420.252106 
	C134.787827,411.829651 134.629684,403.387726 133.913315,395.001251 
	C133.232849,387.034760 126.786110,382.137146 119.496361,382.050293 
	C105.165176,381.879486 90.826035,382.221741 76.498665,381.932129 
	C64.309929,381.685760 53.215595,378.013733 44.552830,368.988373 
	C37.099884,361.223480 33.056068,351.783051 33.043919,340.998779 
	C32.960354,266.832581 33.000000,192.666275 33.000000,118.000000 
z"/>
</svg>