<?xml version="1.0" standalone="no"?>
<!DOCTYPE svg PUBLIC "-//W3C//DTD SVG 20010904//EN"
 "http://www.w3.org/TR/2001/REC-SVG-20010904/DTD/svg10.dtd">
<svg version="1.0" xmlns="http://www.w3.org/2000/svg"
 width="512.000000pt" height="512.000000pt" viewBox="0 0 512.000000 512.000000"
 preserveAspectRatio="xMidYMid meet">

<g transform="translate(0.000000,512.000000) scale(0.100000,-0.100000)"
fill="#000000" stroke="none">
<path d="M266 4624 c-34 -11 -64 -31 -102 -68 -91 -92 -84 49 -84 -1676 0
-1723 -7 -1585 83 -1674 91 -91 37 -86 989 -86 l830 0 -5 -27 c-3 -16 -13 -70
-23 -120 l-18 -93 -183 0 c-182 0 -184 0 -208 -25 -24 -23 -25 -28 -25 -175 0
-147 1 -152 25 -175 l24 -25 991 0 991 0 24 25 c24 23 25 28 25 175 0 147 -1
152 -25 175 -24 25 -26 25 -208 25 l-183 0 -18 93 c-10 50 -20 104 -23 119
l-5 28 848 2 849 3 50 27 c59 31 94 67 126 128 l24 45 3 1535 c3 1750 10 1603
-84 1697 -91 91 140 83 -2398 82 -1962 0 -2247 -2 -2290 -15z m4576 -182 l33
-32 3 -1325 2 -1325 -2320 0 -2320 0 2 1324 3 1324 25 27 c14 15 34 31 45 35
11 5 1027 8 2257 7 l2238 -2 32 -33z m36 -2967 l-3 -125 -33 -32 -32 -33
-2250 0 -2250 0 -32 33 -33 32 -3 125 -4 125 2322 0 2322 0 -4 -125z m-1884
-447 c10 -51 20 -105 23 -120 l6 -28 -463 0 -462 0 5 28 c3 15 13 69 23 120
l18 92 416 0 416 0 18 -92z m446 -348 l0 -40 -880 0 -880 0 0 40 0 40 880 0
880 0 0 -40z"/>
<path d="M2425 1495 c-16 -15 -25 -36 -25 -55 0 -19 9 -40 25 -55 23 -24 31
-25 135 -25 104 0 112 1 135 25 16 15 25 36 25 55 0 19 -9 40 -25 55 -23 24
-31 25 -135 25 -104 0 -112 -1 -135 -25z"/>
</g>
</svg>
