<?xml version="1.0" standalone="no"?>
<!DOCTYPE svg PUBLIC "-//W3C//DTD SVG 20010904//EN"
 "http://www.w3.org/TR/2001/REC-SVG-20010904/DTD/svg10.dtd">
<svg version="1.0" xmlns="./travel.svg"
 width="30" height="30" viewBox="0 0 256.000000 256.000000"
 preserveAspectRatio="xMidYMid meet">

<g transform="translate(0.000000,256.000000) scale(0.100000,-0.100000)"
fill="#000000" stroke="none">
<path d="M1170 2544 c-79 -21 -135 -57 -227 -147 l-82 -80 -38 16 c-21 8 -127
58 -236 111 -109 53 -209 99 -223 102 -21 5 -35 -4 -89 -58 -98 -97 -102 -89
135 -270 l199 -153 -122 -123 c-111 -111 -124 -122 -152 -117 -16 2 -63 7
-103 10 l-73 6 -70 -68 c-80 -76 -93 -96 -84 -122 6 -20 58 -45 118 -56 21 -4
40 -11 42 -16 3 -4 -2 -48 -11 -96 -13 -68 -15 -125 -12 -253 5 -163 5 -164
-23 -227 -68 -151 -119 -366 -119 -498 1 -140 48 -273 129 -358 97 -102 203
-141 386 -141 157 0 299 32 470 107 l70 30 210 2 c181 1 220 4 285 22 119 33
230 79 316 131 65 39 80 52 82 75 7 56 -38 74 -93 36 -78 -53 -243 -125 -331
-143 l-31 -7 -6 80 c-7 93 -31 148 -79 184 -53 39 -93 47 -239 47 -183 0 -209
13 -224 112 -9 59 -53 114 -103 128 -20 5 -63 10 -95 10 -97 0 -147 46 -147
133 0 70 58 127 130 127 38 0 80 39 80 75 0 14 11 37 25 50 24 25 27 25 193
25 159 0 171 -1 203 -23 58 -39 69 -74 69 -228 0 -125 2 -139 22 -164 28 -36
76 -55 138 -55 44 0 56 -5 81 -29 27 -28 29 -35 29 -108 0 -91 14 -127 51
-131 45 -5 59 20 59 106 0 88 -10 131 -41 177 -34 49 -83 77 -142 82 -104 8
-95 -7 -99 161 -3 145 -4 150 -33 198 -19 30 -49 60 -79 79 l-49 30 -196 3
c-190 3 -197 2 -241 -21 -35 -18 -51 -35 -70 -75 -14 -29 -32 -52 -41 -52 -8
0 -38 -12 -67 -26 -63 -31 -107 -88 -123 -159 -23 -102 40 -224 134 -260 23
-8 77 -19 121 -23 l78 -7 17 -67 c18 -69 39 -101 96 -141 27 -20 46 -22 203
-27 l174 -5 29 -33 c27 -30 29 -38 29 -112 l0 -80 -104 0 c-457 0 -854 294
-991 733 l-28 88 28 52 c15 29 48 85 74 126 l45 75 12 -41 c32 -111 61 -112
163 -9 l74 74 -7 109 -7 108 119 119 120 119 48 -63 c235 -304 260 -335 282
-338 32 -5 152 113 152 149 0 14 -52 132 -115 264 l-116 239 43 44 c45 47 162
127 265 182 l62 33 88 -28 c154 -48 288 -125 404 -232 l62 -58 -89 -5 c-102
-7 -149 -25 -206 -82 -48 -48 -65 -82 -81 -160 l-12 -63 -53 -11 c-109 -24
-164 -88 -170 -194 -7 -111 31 -184 113 -221 35 -16 68 -19 267 -19 193 0 229
2 242 16 18 17 20 42 6 64 -8 12 -50 16 -240 20 l-232 5 -30 34 c-28 31 -30
39 -26 89 4 45 10 60 32 79 15 13 35 23 44 23 37 0 91 22 116 46 25 26 37 58
51 137 7 44 57 105 101 123 17 7 77 14 138 15 l108 2 20 -29 c105 -155 168
-371 168 -574 0 -162 -27 -286 -96 -441 -35 -79 -36 -102 -2 -120 35 -19 59 0
90 70 87 190 113 323 106 545 -5 155 -5 163 19 216 67 148 110 313 119 459 12
174 -38 323 -139 419 -100 94 -196 127 -372 126 -180 0 -334 -41 -554 -145
-68 -33 -125 -59 -126 -59 -1 0 0 40 3 89 4 84 4 89 -19 105 -29 20 -104 20
-179 0z m98 -128 c-8 -70 -42 -123 -149 -232 -64 -66 -99 -109 -99 -123 0 -12
52 -130 115 -263 112 -233 115 -242 98 -260 -18 -17 -24 -11 -171 182 -130
171 -157 200 -179 200 -21 0 -60 -34 -181 -152 -84 -84 -157 -162 -162 -173
-4 -11 -3 -65 2 -119 8 -87 8 -100 -8 -117 -9 -10 -20 -19 -24 -19 -4 0 -17
37 -29 83 -50 183 -50 184 -79 196 -15 6 -76 24 -136 40 -59 17 -110 32 -112
34 -2 2 6 13 19 24 21 19 28 19 126 10 l103 -9 160 158 c169 169 181 184 172
208 -3 9 -96 84 -205 168 -192 147 -198 153 -181 171 18 17 26 14 248 -94 126
-61 242 -115 258 -120 26 -8 35 -2 131 91 107 102 142 127 210 146 74 22 78
20 73 -30z m887 33 c258 -48 360 -285 271 -630 -14 -52 -32 -112 -42 -134 -17
-40 -17 -40 -27 -15 -115 281 -294 487 -537 617 -41 22 -97 49 -123 58 -26 10
-44 21 -40 26 15 13 167 59 243 73 95 17 180 19 255 5z m-1838 -910 c25 -8 33
-19 41 -52 11 -40 10 -43 -51 -138 l-62 -97 -3 62 c-3 62 25 236 38 236 4 0
21 -5 37 -11z m-49 -789 c130 -248 336 -430 622 -547 25 -10 25 -10 -15 -27
-22 -10 -82 -28 -134 -42 -273 -71 -477 -25 -577 132 -61 95 -78 224 -49 379
19 108 30 148 66 240 l12 30 15 -40 c9 -22 36 -78 60 -125z"/>

</g>
</svg>
